<svg version="1.1" id="Layer_1" xmlns="http://www.w3.org/2000/svg" xmlns:xlink="http://www.w3.org/1999/xlink" x="0px" y="0px"
	 width="100%" viewBox="0 0 1748 1240" enable-background="new 0 0 1748 1240" xml:space="preserve">
<path fill="#FDE5CF" opacity="1.000000" stroke="none" 
	d="
M1235.000000,1241.000000 
	C823.333435,1241.000000 412.166809,1241.000000 1.000165,1241.000000 
	C1.000110,827.666809 1.000110,414.333618 1.000055,1.000332 
	C583.666443,1.000221 1166.332886,1.000221 1748.999512,1.000111 
	C1748.999634,414.333008 1748.999634,827.666016 1748.999756,1240.999512 
	C1577.833374,1241.000000 1406.666626,1241.000000 1235.000000,1241.000000 
M1453.555176,758.142151 
	C1443.506226,760.444824 1433.496216,762.942932 1423.391113,764.965027 
	C1418.585083,765.926758 1416.418335,768.237122 1416.384644,772.773315 
	C1401.822388,763.225342 1387.347046,753.541443 1372.677856,744.160645 
	C1349.776123,729.515320 1325.312744,717.915710 1300.244873,707.516479 
	C1283.669189,700.640198 1266.942383,694.079895 1252.455811,683.041443 
	C1247.991455,679.639709 1243.157593,676.539062 1238.089722,674.158875 
	C1231.645630,671.132385 1224.727051,669.131714 1218.154053,666.354858 
	C1216.221802,665.538574 1213.855103,663.902893 1213.240234,662.110107 
	C1208.555786,648.451965 1204.380615,634.619690 1199.754395,620.940552 
	C1198.507446,617.253357 1196.254883,613.906250 1194.750366,609.688416 
	C1193.249146,604.703918 1191.748047,599.719360 1190.518677,593.989197 
	C1191.284546,589.290466 1192.873657,584.546143 1192.616577,579.904053 
	C1192.261230,573.486938 1190.619263,567.125977 1189.344849,560.777771 
	C1185.492676,541.589172 1176.436279,525.017212 1164.270020,509.833527 
	C1151.076538,493.367798 1139.257202,475.646454 1120.736206,464.136078 
	C1121.435059,461.998352 1122.790161,459.833191 1122.702148,457.728271 
	C1122.488892,452.621246 1121.103760,447.544525 1121.080566,442.451508 
	C1120.997803,424.364471 1120.905884,406.262146 1121.549438,388.191681 
	C1122.121948,372.117523 1122.194336,356.282013 1115.768677,341.140564 
	C1131.306396,339.485046 1145.232910,327.915070 1149.453613,313.155396 
	C1154.064697,297.030396 1144.769775,285.198181 1128.052612,285.973145 
	C1125.738037,286.080475 1123.429443,286.426544 1121.130859,286.752350 
	C1115.488770,287.552032 1109.854248,288.404388 1103.466675,289.346191 
	C1104.287354,287.472992 1104.637573,286.562042 1105.074219,285.694641 
	C1108.980957,277.933624 1107.240356,271.869568 1099.153564,268.831787 
	C1094.318970,267.015656 1088.843506,266.836243 1083.628174,266.125305 
	C1079.477417,265.559479 1075.284546,265.302948 1070.307739,264.833374 
	C1071.962036,259.549377 1073.435547,255.530014 1074.470581,251.400726 
	C1077.002808,241.298569 1073.442383,233.978455 1064.669067,231.596771 
	C1059.090454,230.082336 1053.348877,229.170074 1047.683960,227.970779 
	C1032.881836,224.837097 1020.860840,232.191849 1008.772705,238.703461 
	C1006.749329,239.793411 1004.965942,243.586288 1005.138916,245.980911 
	C1005.416931,249.829712 1009.215210,249.757736 1012.253784,249.226883 
	C1015.545898,248.651703 1017.942383,249.460693 1018.813416,252.818207 
	C1019.423401,255.169586 1019.865173,257.633911 1019.895325,260.053864 
	C1020.000305,268.497406 1022.592041,275.071075 1031.842041,276.753113 
	C1029.846558,289.998596 1032.040039,293.724854 1044.304932,299.126587 
	C1045.617554,299.704742 1046.625977,301.342041 1047.405396,302.700439 
	C1051.048706,309.050323 1055.537842,314.456573 1062.273438,317.854492 
	C1060.430176,319.633789 1058.881714,322.035797 1056.687866,323.074341 
	C1050.386963,326.057190 1043.876099,328.623138 1037.353149,331.104126 
	C1027.998413,334.662109 1026.083862,334.003845 1020.001953,325.416718 
	C1013.409729,331.895752 1006.531799,337.966614 1000.533142,344.808411 
	C996.907104,348.944061 994.645020,354.275513 991.371338,359.577911 
	C982.970886,373.438263 973.232910,386.251312 961.176147,397.141907 
	C957.796326,400.194855 954.094971,403.219025 950.005310,405.076935 
	C944.769775,407.455444 939.069275,408.973267 933.434082,410.279236 
	C914.546814,414.656281 895.661133,419.081177 876.656677,422.899811 
	C859.698853,426.307159 842.507263,427.911041 825.088806,425.950989 
	C824.720032,407.124878 824.351257,388.298767 823.978455,369.264923 
	C812.409790,369.264923 801.645874,369.264923 790.340881,369.103119 
	C789.807800,368.942139 789.274719,368.781158 788.826538,367.609009 
	C788.464172,335.488739 788.104309,303.368439 787.729126,271.248322 
	C787.715576,270.087494 787.445068,268.925598 787.476074,267.769073 
	C787.566895,264.385284 786.043396,263.205444 782.632263,263.227142 
	C758.162659,263.382874 733.692139,263.379242 708.426636,263.187988 
	C707.886780,263.265747 707.346924,263.343536 705.900146,263.343750 
	C682.954895,263.255798 660.009583,263.167847 637.021790,262.271362 
	C633.704956,248.546356 629.276794,234.976532 627.333252,221.059753 
	C624.462769,200.505173 614.712891,184.073730 600.321533,170.105682 
	C592.279846,162.300507 582.983398,155.927795 570.931396,155.978745 
	C487.805084,156.330139 404.678009,156.589233 321.553894,157.227158 
	C312.070129,157.299927 302.430115,158.108032 293.700104,163.402344 
	C281.319641,170.910492 270.209015,179.765350 261.408997,191.259140 
	C256.035461,198.277603 250.584915,205.770859 251.312119,215.097885 
	C252.004791,223.981918 253.329590,233.005768 255.872345,241.521500 
	C263.956360,268.595093 272.799255,295.441193 281.230072,322.412354 
	C287.580292,342.727264 293.785370,363.087799 299.988739,383.448242 
	C311.571930,421.465698 323.180359,459.475708 334.644196,497.529205 
	C350.470947,550.065002 366.191345,602.632874 381.923767,655.196960 
	C394.506805,697.238708 407.367218,739.201233 419.489380,781.375793 
	C428.853424,813.954285 436.812958,846.937134 446.214325,879.504211 
	C457.650116,919.118835 469.812653,958.526245 481.963043,997.930115 
	C484.787476,1007.089783 488.225250,1016.018005 496.437286,1022.398499 
	C513.534607,1035.682861 533.055908,1043.249146 553.910706,1047.710571 
	C565.839355,1050.262695 578.000183,1051.542480 589.676453,1046.516724 
	C605.417114,1039.741699 621.288818,1033.179321 636.600342,1025.518311 
	C667.870972,1009.872253 699.168091,994.209595 729.751953,977.284485 
	C750.651428,965.718750 770.552917,952.294495 790.523499,939.129028 
	C800.284363,932.694153 806.117920,922.878357 809.054871,911.534912 
	C812.688171,897.502075 811.881836,883.376404 808.205627,869.612244 
	C803.834473,853.245789 798.245483,837.208984 793.552002,820.923401 
	C784.622314,789.939026 775.949951,758.880554 767.178162,727.850769 
	C752.347595,675.388916 737.495483,622.933167 722.720154,570.455872 
	C719.978271,560.717590 717.555420,550.889526 715.828613,541.097839 
	C723.432617,541.609436 731.036682,542.120972 738.547241,542.769470 
	C738.547241,542.769470 738.444092,542.639771 739.382263,542.874939 
	C746.749817,542.580322 754.252502,543.046265 761.445190,541.767700 
	C768.055359,540.592712 769.986023,535.718079 767.986206,529.354370 
	C767.640930,528.255615 767.345459,527.141296 767.666321,525.755798 
	C772.776123,523.140442 777.885986,520.525024 783.574158,518.487183 
	C786.790894,518.764587 790.007690,519.041992 794.014404,519.387573 
	C792.052307,521.969360 790.100708,523.849426 789.038147,526.141663 
	C788.099609,528.166443 788.152405,530.650635 787.767517,532.932007 
	C790.363098,533.349976 792.972595,534.137878 795.548889,534.041504 
	C796.999573,533.987122 798.385315,532.456909 799.817810,531.621582 
	C808.827637,526.368042 817.356506,519.874756 826.957581,516.136963 
	C846.449890,508.548370 866.877991,503.333862 886.273193,495.531952 
	C915.113525,483.930573 943.432678,471.024841 971.894531,458.494598 
	C986.354126,452.128815 1000.640869,445.370331 1015.419128,439.370819 
	C1018.422607,444.568848 1021.426086,449.766876 1024.701172,455.799591 
	C1025.820312,464.353821 1028.438965,472.716278 1027.132324,481.587952 
	C1026.823364,483.685547 1028.928711,486.138733 1029.587280,489.253418 
	C1029.061523,496.712158 1028.725708,504.190155 1027.971680,511.625763 
	C1026.211914,528.977600 1024.993774,546.431335 1022.165588,563.614868 
	C1019.259583,581.271423 1014.728210,598.662048 1010.828857,616.151306 
	C1010.399780,618.075623 1009.551575,619.930420 1008.723145,621.737488 
	C1006.048950,627.570190 1006.702820,628.993103 1013.115051,631.818115 
	C1011.457397,649.809387 1009.059021,667.771790 1008.357239,685.800232 
	C1007.699158,702.708862 1008.652161,719.694153 1009.274658,736.631775 
	C1009.517090,743.229126 1010.746826,749.794617 1011.609558,756.363831 
	C1013.378723,769.836609 1014.953552,783.341614 1017.066101,796.761230 
	C1020.052246,815.730103 1022.988647,834.727600 1026.795654,853.541016 
	C1031.363037,876.111328 1036.823608,898.500916 1041.188110,921.021362 
	C1039.179565,921.671448 1037.170898,922.321533 1034.670898,922.466064 
	C1033.743896,921.335083 1033.028320,919.780518 1031.834229,919.184265 
	C1030.452759,918.494446 1028.227417,917.965088 1027.151123,918.630920 
	C1026.108765,919.275818 1025.760864,921.512268 1025.685059,923.077515 
	C1025.638062,924.044739 1026.669922,925.064087 1026.832031,926.620300 
	C1025.162354,927.783691 1023.492615,928.947083 1021.236450,929.770508 
	C1020.177429,928.716980 1019.285706,927.249756 1018.009338,926.733887 
	C1016.878723,926.276855 1014.142822,926.814941 1014.131775,927.021667 
	C1014.011719,929.263489 1014.289734,931.526611 1013.990356,934.296021 
	C1012.665100,935.203552 1011.339905,936.111023 1009.399292,936.703613 
	C1008.804382,936.142700 1008.298645,935.295349 1007.597107,935.076904 
	C1005.809448,934.520203 1003.934204,934.244446 1002.094055,933.856201 
	C1002.028870,935.790283 1001.845764,937.731384 1001.959167,939.654907 
	C1002.001831,940.379089 1002.731506,941.062683 1002.421936,941.921082 
	C987.925842,951.482117 973.257874,960.799072 959.064758,970.790527 
	C955.863892,973.043884 954.317322,977.647278 951.530212,981.683167 
	C947.117004,987.241760 947.612549,995.411194 953.422363,999.294739 
	C957.310852,1001.893921 962.085205,1004.395935 966.580994,1004.624573 
	C979.315918,1005.272461 992.374939,1006.352905 1004.830872,1004.332153 
	C1035.153198,999.412842 1065.241333,993.005310 1095.347534,986.826050 
	C1104.426270,984.962646 1113.501099,982.514343 1122.122559,979.162842 
	C1129.421021,976.325806 1129.404785,972.052124 1123.080200,966.275879 
	C1122.030640,957.333862 1120.815552,948.406799 1120.007324,939.442993 
	C1119.648315,935.460754 1119.151367,931.891357 1115.091675,929.048828 
	C1113.674438,912.180237 1112.262817,895.311218 1110.838257,878.443237 
	C1109.218994,859.271240 1107.602173,840.098938 1105.953857,820.929443 
	C1105.484985,815.476685 1104.999390,810.022583 1104.366211,804.587219 
	C1102.965576,792.562439 1101.498779,780.545166 1099.999023,768.532288 
	C1098.171997,753.897156 1096.454224,739.244751 1094.319946,724.653809 
	C1093.661377,720.151855 1093.322510,716.064880 1094.862061,711.572327 
	C1099.041016,699.377563 1104.092773,687.403381 1105.465454,674.382568 
	C1105.681519,672.333862 1106.642212,670.363770 1107.317871,668.164368 
	C1109.061157,669.319519 1110.373657,670.189270 1111.971680,671.616821 
	C1113.316040,674.666931 1114.660400,677.716980 1116.180908,681.468872 
	C1124.881836,695.227661 1133.397095,709.108643 1142.348755,722.702332 
	C1148.333984,731.791504 1156.571289,738.797791 1166.681274,742.706726 
	C1186.033325,750.189148 1205.318848,758.192200 1225.255737,763.735474 
	C1259.465088,773.246948 1292.975708,784.018555 1324.587524,800.577026 
	C1342.815552,810.124817 1361.910034,818.059326 1380.814331,826.259277 
	C1392.519043,831.336426 1405.102783,834.508728 1415.101807,843.781799 
	C1416.138672,846.900574 1417.175537,850.019287 1418.143677,853.848633 
	C1419.709351,855.479614 1421.275024,857.110596 1423.113647,859.423950 
	C1424.236084,861.328857 1425.358521,863.233765 1426.329346,865.842102 
	C1426.092285,869.164978 1428.381836,869.732300 1431.189087,870.633911 
	C1432.138550,871.796265 1433.088013,872.958618 1434.028687,874.870117 
	C1435.322510,876.411011 1436.616455,877.951904 1438.090332,880.112244 
	C1449.235107,893.735596 1460.194702,907.518188 1471.669189,920.857910 
	C1474.185913,923.783569 1478.535278,925.132812 1482.362549,927.811829 
	C1484.545532,933.564758 1488.361328,935.114502 1492.892578,931.066833 
	C1496.216675,928.097717 1499.268677,924.059082 1500.716919,919.896912 
	C1505.240234,906.895813 1505.344482,893.410889 1502.436890,880.029175 
	C1494.265503,842.421509 1482.487183,805.888367 1469.023682,769.880798 
	C1467.693115,766.322327 1466.009644,762.808655 1463.934692,759.637390 
	C1461.261963,755.552185 1458.410522,755.335266 1453.555176,758.142151 
M989.724182,284.989319 
	C988.504028,285.696045 987.283813,286.402740 986.063660,287.109436 
	C986.870300,288.139862 987.475037,289.703522 988.521790,290.099854 
	C991.557373,291.249207 994.770508,291.929962 998.059021,292.834473 
	C995.531006,294.620697 992.784363,296.317871 990.366333,298.397217 
	C989.474915,299.163818 989.358337,300.831360 988.888306,302.087982 
	C990.033386,302.403564 991.667358,303.367645 992.245850,302.931580 
	C996.687500,299.583466 1001.319397,296.333862 1005.095032,292.306244 
	C1007.939026,289.272308 1006.304749,286.378296 1002.002075,285.993683 
	C998.072693,285.642426 994.111389,285.648438 989.724182,284.989319 
z"/>
<path fill="#EBF284" opacity="1.000000" stroke="none" 
	d="
M714.985352,541.102905 
	C717.555420,550.889526 719.978271,560.717590 722.720154,570.455872 
	C737.495483,622.933167 752.347595,675.388916 767.178162,727.850769 
	C775.949951,758.880554 784.622314,789.939026 793.552002,820.923401 
	C798.245483,837.208984 803.834473,853.245789 808.205627,869.612244 
	C811.881836,883.376404 812.688171,897.502075 809.054871,911.534912 
	C806.117920,922.878357 800.284363,932.694153 790.523499,939.129028 
	C770.552917,952.294495 750.651428,965.718750 729.751953,977.284485 
	C699.168091,994.209595 667.870972,1009.872253 636.600342,1025.518311 
	C621.288818,1033.179321 605.417114,1039.741699 589.676453,1046.516724 
	C578.000183,1051.542480 565.839355,1050.262695 553.910706,1047.710571 
	C533.055908,1043.249146 513.534607,1035.682861 496.437286,1022.398499 
	C488.225250,1016.018005 484.787476,1007.089783 481.963043,997.930115 
	C469.812653,958.526245 457.650116,919.118835 446.214325,879.504211 
	C436.812958,846.937134 428.853424,813.954285 419.489380,781.375793 
	C407.367218,739.201233 394.506805,697.238708 381.923767,655.196960 
	C366.191345,602.632874 350.470947,550.065002 334.644196,497.529205 
	C323.180359,459.475708 311.571930,421.465698 299.988739,383.448242 
	C293.785370,363.087799 287.580292,342.727264 281.230072,322.412354 
	C272.799255,295.441193 263.956360,268.595093 255.872345,241.521500 
	C253.329590,233.005768 252.004791,223.981918 251.312119,215.097885 
	C250.584915,205.770859 256.035461,198.277603 261.408997,191.259140 
	C270.209015,179.765350 281.319641,170.910492 293.700104,163.402344 
	C302.430115,158.108032 312.070129,157.299927 321.553894,157.227158 
	C404.678009,156.589233 487.805084,156.330139 570.931396,155.978745 
	C582.983398,155.927795 592.279846,162.300507 600.321533,170.105682 
	C614.712891,184.073730 624.462769,200.505173 627.333252,221.059753 
	C629.276794,234.976532 633.704956,248.546356 636.568787,262.718597 
	C629.575684,263.080780 623.035645,262.995728 616.447144,262.509644 
	C613.297485,251.232224 609.910645,240.425537 607.228638,229.446671 
	C606.080872,224.748001 604.204102,223.538254 599.461975,223.957428 
	C570.110107,226.552078 540.738037,228.935043 511.356201,231.172073 
	C461.871094,234.939697 412.373352,238.540894 362.881775,242.223709 
	C350.010162,243.181534 337.141754,244.182266 323.884155,245.192841 
	C396.276062,478.312592 468.511749,710.929382 540.813660,943.759338 
	C542.697083,942.927063 543.932739,942.453003 545.104004,941.853149 
	C621.237183,902.859863 697.357239,863.840942 773.522827,824.911072 
	C776.602600,823.336914 777.356567,821.883423 776.342163,818.380310 
	C759.594666,760.548340 743.003906,702.670837 726.414734,644.793091 
	C716.424622,609.938782 706.497864,575.066345 697.025085,540.145386 
	C703.333496,540.426697 709.159424,540.764771 714.985352,541.102905 
M377.635101,522.998718 
	C377.977386,524.112122 378.316406,525.226501 378.662384,526.338745 
	C408.731995,623.000427 438.805664,719.660828 468.870911,816.323914 
	C484.567688,866.790649 500.025238,917.333496 516.063354,967.691467 
	C521.484070,984.712036 529.317627,1000.719360 541.605103,1014.149963 
	C553.171997,1026.793091 567.802368,1033.820801 584.199280,1037.565674 
	C585.500183,1037.862793 587.183167,1036.487183 588.688538,1035.888916 
	C587.697876,1034.611084 586.782776,1033.261475 585.675537,1032.094238 
	C585.287292,1031.684814 584.429565,1031.711914 583.781677,1031.558838 
	C558.670288,1025.625610 540.704163,1010.460266 530.659485,987.177551 
	C522.389465,968.008545 515.596863,948.116333 509.375031,928.162537 
	C439.258331,703.292419 369.373657,478.349945 299.449738,253.419708 
	C296.053741,242.495544 291.961029,231.754440 292.007050,219.998978 
	C292.055481,207.635895 292.170868,195.328690 297.022644,183.674835 
	C299.718140,177.200287 304.056549,172.551147 311.289429,170.922791 
	C312.925201,170.554535 314.208466,168.620483 315.653992,167.407181 
	C313.678802,166.770569 311.561157,165.319092 309.752533,165.635300 
	C300.886353,167.185379 295.282410,173.154938 292.167664,181.075729 
	C284.944427,199.444397 283.603882,218.795578 288.964111,237.450226 
	C300.666199,278.175751 313.882263,318.466248 326.477112,358.935333 
	C343.421021,413.378510 360.362427,467.822479 377.635101,522.998718 
M697.166443,960.605347 
	C702.015930,958.634766 707.578064,957.598328 711.593506,954.534607 
	C730.737915,939.927612 730.153442,906.454224 710.894592,891.957703 
	C693.655151,878.980957 674.451111,883.902039 665.835510,903.643372 
	C664.118286,907.578125 662.787598,911.739868 661.784851,915.918396 
	C656.153625,939.384460 672.134338,960.004639 697.166443,960.605347 
z"/>
<path fill="#FE7F50" opacity="1.000000" stroke="none" 
	d="
M616.495544,262.910675 
	C623.035645,262.995728 629.575684,263.080780 636.590088,263.122864 
	C660.009583,263.167847 682.954895,263.255798 706.484131,263.638000 
	C707.169495,264.095642 707.270935,264.259094 707.152222,264.757141 
	C706.665710,266.861359 706.175964,268.629822 706.167175,270.400696 
	C706.063599,291.224762 706.238464,312.052460 705.906921,332.872314 
	C705.695862,346.127136 704.761963,359.370453 704.135498,372.981720 
	C701.632629,372.981720 699.835327,372.978882 698.038086,372.982178 
	C669.882385,373.033722 641.726379,373.046906 613.571655,373.243744 
	C612.025146,373.254547 610.489319,374.794739 608.948547,375.623047 
	C610.438843,376.497772 611.892273,378.047485 613.425842,378.131439 
	C620.401917,378.513306 627.400879,378.597198 634.391052,378.579895 
	C661.207947,378.513550 688.024597,378.366638 714.841370,378.251678 
	C716.764709,378.243439 718.688232,378.250610 720.749329,378.250610 
	C720.848999,380.235138 720.947083,381.550873 720.976562,382.868103 
	C721.700012,415.158356 722.380981,447.449738 723.245911,479.736176 
	C723.286072,481.235260 724.961914,482.690552 725.875977,484.166260 
	C726.667419,482.653229 728.137268,481.138611 728.133667,479.627472 
	C728.117432,472.808136 727.542725,465.992249 727.425842,459.170715 
	C726.983826,433.368744 726.667297,407.564667 726.227661,381.762634 
	C726.175659,378.710632 727.733215,378.193024 730.275085,378.227051 
	C736.605103,378.311768 742.956604,377.934265 749.263855,378.321991 
	C759.841675,378.972260 770.188049,378.225861 780.366089,375.128571 
	C782.725037,374.410736 785.287476,374.174957 787.768921,374.091278 
	C791.356384,373.970367 792.175415,372.377594 790.882019,369.264923 
	C801.645874,369.264923 812.409790,369.264923 823.978455,369.264923 
	C824.351257,388.298767 824.720032,407.124878 825.078247,426.886963 
	C825.396362,436.901459 825.724976,445.979950 825.994995,455.519226 
	C826.035522,463.597382 826.134583,471.214783 826.176697,479.305603 
	C826.098816,482.427979 825.817383,485.106750 826.115723,487.719269 
	C826.609680,492.043945 825.101624,494.562714 821.099976,496.686829 
	C808.260925,503.501801 795.677734,510.798706 782.995789,517.909668 
	C777.885986,520.525024 772.776123,523.140442 767.089233,525.673279 
	C759.463684,511.557526 746.341064,506.779388 732.369080,504.096100 
	C709.400696,499.685120 686.254150,496.205200 663.272461,491.858337 
	C653.856018,490.077271 644.459045,487.664154 635.437317,484.457886 
	C623.833313,480.333832 619.375793,471.697021 621.967773,459.576172 
	C623.631775,451.795197 626.170410,444.201996 628.297546,436.519226 
	C631.041870,426.606659 631.311646,416.787201 626.645691,407.334320 
	C623.424805,400.809052 617.311279,398.530060 610.799072,401.683197 
	C607.411743,403.323273 604.256836,405.656158 601.399475,408.139313 
	C591.718384,416.552612 584.721313,427.115082 578.468628,438.149567 
	C567.723022,457.113007 552.781738,471.524200 533.074829,480.509766 
	C535.432678,443.237915 537.801758,406.401672 540.194702,369.193481 
	C560.094666,369.193481 579.532776,369.193481 599.471008,369.193481 
	C600.937012,333.978210 602.387268,299.141266 603.824341,264.620087 
	C608.487122,263.991058 612.491333,263.450867 616.495544,262.910675 
z"/>
<path fill="#FFBC80" opacity="1.000000" stroke="none" 
	d="
M1415.130981,842.995605 
	C1405.102783,834.508728 1392.519043,831.336426 1380.814331,826.259277 
	C1361.910034,818.059326 1342.815552,810.124817 1324.587524,800.577026 
	C1292.975708,784.018555 1259.465088,773.246948 1225.255737,763.735474 
	C1205.318848,758.192200 1186.033325,750.189148 1166.681274,742.706726 
	C1156.571289,738.797791 1148.333984,731.791504 1142.348755,722.702332 
	C1133.397095,709.108643 1124.881836,695.227661 1116.489258,681.188721 
	C1120.969849,680.929626 1120.504517,678.463562 1119.292725,675.933289 
	C1111.171631,658.976196 1102.982788,642.051514 1095.225098,625.065308 
	C1100.554565,623.948669 1105.474854,622.883179 1110.811523,621.834534 
	C1113.368530,621.703552 1115.533325,621.709900 1117.646240,621.382812 
	C1131.743530,619.201172 1145.809204,616.804626 1159.926270,614.763611 
	C1171.409058,613.103455 1182.949219,611.841553 1194.463989,610.403015 
	C1196.254883,613.906250 1198.507446,617.253357 1199.754395,620.940552 
	C1204.380615,634.619690 1208.555786,648.451965 1213.240234,662.110107 
	C1213.855103,663.902893 1216.221802,665.538574 1218.154053,666.354858 
	C1224.727051,669.131714 1231.645630,671.132385 1238.089722,674.158875 
	C1243.157593,676.539062 1247.991455,679.639709 1252.455811,683.041443 
	C1266.942383,694.079895 1283.669189,700.640198 1300.244873,707.516479 
	C1325.312744,717.915710 1349.776123,729.515320 1372.677856,744.160645 
	C1387.347046,753.541443 1401.822388,763.225342 1416.846436,773.215820 
	C1427.919312,785.688477 1432.052856,799.799377 1427.676392,815.101379 
	C1424.901978,824.802002 1419.406250,833.724243 1415.130981,842.995605 
z"/>
<path fill="#FFBC80" opacity="1.000000" stroke="none" 
	d="
M1041.897461,920.968811 
	C1036.823608,898.500916 1031.363037,876.111328 1026.795654,853.541016 
	C1022.988647,834.727600 1020.052246,815.730103 1017.066101,796.761230 
	C1014.953552,783.341614 1013.378723,769.836609 1011.609558,756.363831 
	C1010.746826,749.794617 1009.517090,743.229126 1009.274658,736.631775 
	C1008.652161,719.694153 1007.699158,702.708862 1008.357239,685.800232 
	C1009.059021,667.771790 1011.457397,649.809387 1013.572021,631.380493 
	C1018.709839,630.919922 1023.390625,630.897034 1028.453369,630.939392 
	C1034.285034,632.003235 1039.696655,633.407898 1045.191650,633.919617 
	C1058.441162,635.153320 1071.541504,636.631958 1084.081909,641.670532 
	C1088.842285,643.583191 1094.236206,643.919006 1099.683228,645.044128 
	C1103.505493,653.328430 1107.595947,662.193726 1111.686279,671.059021 
	C1110.373657,670.189270 1109.061157,669.319519 1107.317871,668.164368 
	C1106.642212,670.363770 1105.681519,672.333862 1105.465454,674.382568 
	C1104.092773,687.403381 1099.041016,699.377563 1094.862061,711.572327 
	C1093.322510,716.064880 1093.661377,720.151855 1094.319946,724.653809 
	C1096.454224,739.244751 1098.171997,753.897156 1099.999023,768.532288 
	C1101.498779,780.545166 1102.965576,792.562439 1104.366211,804.587219 
	C1104.999390,810.022583 1105.484985,815.476685 1105.953857,820.929443 
	C1107.602173,840.098938 1109.218994,859.271240 1110.838257,878.443237 
	C1112.262817,895.311218 1113.674438,912.180237 1114.717041,929.524658 
	C1112.550293,930.797241 1110.646851,931.410522 1108.983154,932.419312 
	C1094.342651,941.297546 1079.250977,942.344543 1064.027100,934.404419 
	C1056.391724,930.422180 1049.258057,925.477966 1041.897461,920.968811 
z"/>
<path fill="#FEBC80" opacity="1.000000" stroke="none" 
	d="
M533.085938,480.945312 
	C552.781738,471.524200 567.723022,457.113007 578.468628,438.149567 
	C584.721313,427.115082 591.718384,416.552612 601.399475,408.139313 
	C604.256836,405.656158 607.411743,403.323273 610.799072,401.683197 
	C617.311279,398.530060 623.424805,400.809052 626.645691,407.334320 
	C631.311646,416.787201 631.041870,426.606659 628.297546,436.519226 
	C626.170410,444.201996 623.631775,451.795197 621.967773,459.576172 
	C619.375793,471.697021 623.833313,480.333832 635.437317,484.457886 
	C644.459045,487.664154 653.856018,490.077271 663.272461,491.858337 
	C686.254150,496.205200 709.400696,499.685120 732.369080,504.096100 
	C746.341064,506.779388 759.463684,511.557526 766.769531,525.812439 
	C767.345459,527.141296 767.640930,528.255615 767.986206,529.354370 
	C769.986023,535.718079 768.055359,540.592712 761.445190,541.767700 
	C754.252502,543.046265 746.749817,542.580322 739.211060,542.537354 
	C743.569580,539.591003 739.445251,537.020203 738.781250,534.659241 
	C737.996094,531.867737 736.986633,529.602600 740.692566,528.274353 
	C746.433167,526.216919 750.182556,527.026123 751.116821,530.913147 
	C751.693787,533.313904 751.504211,535.907959 752.159851,538.276550 
	C752.462280,539.368958 753.964844,540.129150 754.923279,541.039917 
	C755.621887,540.090698 756.890808,539.154419 756.912781,538.189758 
	C756.980164,535.227478 756.748840,532.227234 756.305115,529.291382 
	C755.558167,524.350342 752.161560,522.389587 747.509521,522.152222 
	C741.536682,521.847534 734.303284,524.935547 733.129883,528.401184 
	C732.775085,529.449280 732.569702,530.880737 733.003235,531.804504 
	C734.730713,535.485046 736.737427,539.034546 738.640686,542.632568 
	C731.036682,542.120972 723.432617,541.609436 715.406982,541.100342 
	C709.159424,540.764771 703.333496,540.426697 696.603760,540.027344 
	C670.022583,538.536072 644.495789,539.591553 618.941101,542.871948 
	C585.536804,547.160034 554.513306,557.271240 526.799316,576.737732 
	C518.289368,582.715149 509.803558,582.756348 501.399017,576.539673 
	C498.077057,574.082458 494.887939,571.261230 492.247986,568.097107 
	C477.631805,550.578674 470.070984,529.662292 463.937653,508.112610 
	C463.351776,506.053986 463.143707,503.849670 463.038391,501.699371 
	C462.666809,494.111084 464.529236,491.646851 472.079346,490.997162 
	C479.691132,490.342102 487.364685,490.442322 494.996033,489.968292 
	C508.195312,489.148346 521.128418,487.069916 533.085938,480.945312 
M618.737488,427.216064 
	C625.965149,419.831329 621.356140,409.066071 610.698242,406.597137 
	C609.220520,406.254822 607.405151,407.369934 605.746094,407.810303 
	C606.987244,408.841064 608.069824,410.324341 609.496887,410.824493 
	C615.754333,413.017395 618.393677,416.469696 616.976868,421.156525 
	C615.472290,426.133820 610.076233,429.166565 604.594666,427.551575 
	C601.646240,426.682892 599.040222,424.701263 596.189209,423.423523 
	C595.320679,423.034241 594.150940,423.316986 593.119080,423.291962 
	C593.280518,424.461273 593.007385,426.061584 593.672119,426.731812 
	C599.122803,432.227997 612.957275,435.419403 618.737488,427.216064 
z"/>
<path fill="#FE8051" opacity="1.000000" stroke="none" 
	d="
M1028.071411,630.874146 
	C1023.390625,630.897034 1018.709839,630.919922 1013.573303,630.933105 
	C1006.702820,628.993103 1006.048950,627.570190 1008.723145,621.737488 
	C1009.551575,619.930420 1010.399780,618.075623 1010.828857,616.151306 
	C1014.728210,598.662048 1019.259583,581.271423 1022.165588,563.614868 
	C1024.993774,546.431335 1026.211914,528.977600 1027.971680,511.625763 
	C1028.725708,504.190155 1029.061523,496.712158 1030.223755,488.974548 
	C1040.504395,487.458405 1050.268921,486.808533 1059.768311,484.863953 
	C1080.699097,480.579315 1101.634277,476.056091 1120.306763,464.838776 
	C1139.257202,475.646454 1151.076538,493.367798 1164.270020,509.833527 
	C1176.436279,525.017212 1185.492676,541.589172 1189.344849,560.777771 
	C1190.619263,567.125977 1192.261230,573.486938 1192.616577,579.904053 
	C1192.873657,584.546143 1191.284546,589.290466 1190.112793,594.476685 
	C1186.177002,597.017700 1182.647217,599.071289 1179.163086,600.763550 
	C1178.573853,597.068298 1177.723755,593.759033 1177.340454,590.396423 
	C1175.306885,572.558350 1167.819946,556.519775 1160.563599,540.492065 
	C1154.671265,527.476990 1147.732544,514.938904 1141.408081,502.115143 
	C1136.550415,492.265442 1131.995239,482.266113 1127.098511,472.436462 
	C1126.574097,471.383881 1124.664429,471.021454 1123.397339,470.338867 
	C1123.332520,471.672119 1122.787842,473.224426 1123.280396,474.303131 
	C1126.528198,481.416199 1130.113403,488.374878 1133.376221,495.481476 
	C1143.855713,518.306580 1154.647095,541.002319 1164.469116,564.108887 
	C1168.456421,573.488953 1170.205811,583.813660 1173.079590,593.677612 
	C1174.030518,596.941528 1173.602417,601.503418 1179.033691,601.495605 
	C1175.062500,603.249268 1171.248169,604.880859 1167.288940,605.998962 
	C1148.345825,611.348145 1129.363647,616.558228 1110.395264,621.817749 
	C1105.474854,622.883179 1100.554565,623.948669 1094.817383,625.033813 
	C1092.067261,625.412720 1090.146484,625.981506 1088.198730,626.097473 
	C1074.486816,626.913757 1060.759033,627.490356 1047.058105,628.454590 
	C1040.703979,628.901855 1034.398804,630.045959 1028.071411,630.874146 
M1035.791748,575.148071 
	C1036.200317,564.020081 1036.494263,552.886169 1037.062256,541.766296 
	C1037.383545,535.476746 1038.384521,529.220520 1038.665405,522.930725 
	C1039.011108,515.183655 1039.022583,507.415771 1038.893433,499.661652 
	C1038.878784,498.780365 1037.026978,497.929657 1036.027222,497.064789 
	C1035.506470,498.266510 1034.563110,499.459442 1034.537964,500.671417 
	C1034.428223,505.966003 1034.962891,511.294281 1034.570801,516.558777 
	C1033.573608,529.954407 1032.117065,543.315186 1031.007568,556.703430 
	C1029.664673,572.913025 1028.564087,589.142883 1027.199707,605.350586 
	C1026.741089,610.799011 1025.645996,616.193604 1025.180298,621.641785 
	C1025.067017,622.967651 1026.291016,624.407837 1026.900146,625.795410 
	C1028.103027,624.718628 1029.991455,623.840454 1030.372192,622.525574 
	C1031.286865,619.366333 1031.617676,616.015259 1031.964966,612.718506 
	C1033.250732,600.509155 1034.447998,588.290527 1035.791748,575.148071 
M1087.082520,509.258331 
	C1092.175537,542.245850 1102.915894,574.197571 1105.196777,607.713745 
	C1105.271118,608.807190 1106.822998,609.800110 1107.686035,610.839905 
	C1108.455322,609.752808 1109.379517,608.738098 1109.933716,607.550598 
	C1110.250244,606.872375 1110.067017,605.896057 1109.934082,605.082520 
	C1107.420654,589.693909 1105.129028,574.263611 1102.281982,558.936523 
	C1098.975830,541.137268 1095.163330,523.432190 1091.600830,505.680206 
	C1090.395752,499.674835 1089.427612,493.615967 1087.988770,487.669250 
	C1087.742065,486.649231 1085.668335,486.071198 1084.438721,485.288971 
	C1084.275879,486.602600 1083.817139,487.958954 1083.999756,489.222595 
	C1084.923706,495.616333 1086.014404,501.985962 1087.082520,509.258331 
M1133.586060,526.976807 
	C1138.483765,539.327026 1143.697510,551.563843 1148.183594,564.061890 
	C1152.052612,574.840759 1154.988525,585.951965 1158.615601,596.823303 
	C1159.146729,598.415527 1161.223877,599.492126 1162.585815,600.807251 
	C1162.830566,599.056213 1163.700317,597.109192 1163.222290,595.584717 
	C1158.996338,582.108704 1155.320068,568.383484 1149.967285,555.353943 
	C1139.806396,530.621033 1128.662598,506.291382 1117.858643,481.824432 
	C1117.135132,480.185669 1116.021240,478.611359 1114.741821,477.362488 
	C1113.832886,476.475220 1112.339844,476.186218 1111.107422,475.630188 
	C1111.168823,477.067352 1110.780396,478.729370 1111.367676,479.903595 
	C1114.262207,485.692169 1117.690063,491.223755 1120.414917,497.085266 
	C1124.897095,506.727234 1128.983154,516.553345 1133.586060,526.976807 
M1087.000977,602.533630 
	C1087.682617,606.959229 1088.217285,611.416199 1089.147461,615.788940 
	C1089.386108,616.910461 1090.873169,617.766418 1091.786621,618.744385 
	C1092.417236,617.435242 1093.649414,616.083069 1093.559570,614.825378 
	C1093.336548,611.704956 1092.341187,608.648499 1091.956421,605.529236 
	C1090.696411,595.316040 1089.813965,585.050964 1088.339600,574.870605 
	C1085.698242,556.635315 1082.808594,538.434753 1079.869263,520.244507 
	C1078.360840,510.909515 1076.591064,501.614075 1074.739258,492.340759 
	C1074.510376,491.195129 1073.043823,490.296692 1072.150757,489.283691 
	C1071.604736,490.466736 1070.446655,491.740204 1070.605957,492.818970 
	C1072.497803,505.619141 1074.680542,518.376099 1076.601685,531.172241 
	C1080.125854,554.646240 1083.526367,578.138916 1087.000977,602.533630 
M1045.048828,575.502563 
	C1043.990112,590.065735 1042.894775,604.626465 1041.929565,619.195862 
	C1041.833252,620.648926 1042.527344,622.154419 1042.854614,623.635559 
	C1043.885620,622.344238 1045.659790,621.144043 1045.831299,619.747192 
	C1047.345825,607.403381 1049.541626,595.036560 1049.694214,582.653809 
	C1050.038086,554.731628 1049.360229,526.796082 1048.964355,498.867889 
	C1048.943115,497.378265 1047.687500,495.906158 1047.006592,494.425903 
	C1046.328003,495.879852 1045.049683,497.341583 1045.068359,498.786560 
	C1045.188477,508.084900 1045.872559,517.380554 1045.840698,526.675293 
	C1045.786133,542.626282 1045.342773,558.576050 1045.048828,575.502563 
z"/>
<path fill="#FEBC80" opacity="1.000000" stroke="none" 
	d="
M783.284973,518.198425 
	C795.677734,510.798706 808.260925,503.501801 821.099976,496.686829 
	C825.101624,494.562714 826.609680,492.043945 826.115723,487.719269 
	C825.817383,485.106750 826.098816,482.427979 826.512085,479.407104 
	C831.694153,480.883820 836.392578,483.063324 841.317505,484.421326 
	C843.344543,484.980316 846.257568,484.400940 848.077576,483.249084 
	C853.658691,479.716980 858.794189,475.487732 864.314514,471.850525 
	C869.645203,468.338257 875.238708,465.224823 880.716797,461.936218 
	C880.626221,461.516724 880.535645,461.097260 880.445068,460.677765 
	C878.910278,460.485596 877.380310,460.231934 875.839905,460.111450 
	C867.264099,459.440674 858.669312,458.966187 850.113159,458.105011 
	C842.072510,457.295746 834.071838,456.089874 826.053589,455.058472 
	C825.724976,445.979950 825.396362,436.901459 825.113770,427.346039 
	C842.507263,427.911041 859.698853,426.307159 876.656677,422.899811 
	C895.661133,419.081177 914.546814,414.656281 933.434082,410.279236 
	C939.069275,408.973267 944.769775,407.455444 950.005310,405.076935 
	C954.094971,403.219025 957.796326,400.194855 961.176147,397.141907 
	C973.232910,386.251312 982.970886,373.438263 991.958496,359.285065 
	C994.357239,361.053772 996.749084,362.851868 997.834961,365.243042 
	C999.219543,368.291870 999.548462,371.820129 1000.097595,375.396393 
	C994.119507,380.157135 987.980286,384.245667 982.705688,389.246155 
	C965.600647,405.461914 946.749512,419.320282 926.790527,431.726898 
	C914.648560,439.274414 902.297424,446.486328 890.192993,454.092041 
	C888.896973,454.906403 888.624084,457.349152 887.876587,459.036499 
	C889.611694,458.799805 891.629517,459.055054 893.036011,458.246674 
	C902.257263,452.946777 911.333862,447.395752 920.481323,441.966553 
	C944.541809,427.686218 968.170044,412.853851 987.872620,392.582703 
	C991.779785,388.562897 996.533936,385.345367 1001.013855,381.909576 
	C1004.842346,378.973389 1004.886902,378.095337 1000.969116,374.791595 
	C1004.152466,371.875519 1007.157288,369.257599 1010.513062,366.751465 
	C1013.919373,364.777435 1016.974854,362.691620 1020.396973,360.684509 
	C1023.785706,363.611542 1027.625122,365.974792 1029.662720,369.407562 
	C1034.124268,376.924835 1039.379150,383.519409 1046.279907,388.882080 
	C1048.747925,390.799927 1050.844849,393.190338 1053.156738,395.315399 
	C1057.369629,399.187805 1059.384155,403.779572 1057.749023,409.758698 
	C1055.967651,411.437561 1054.600220,413.214600 1052.815552,414.314148 
	C1041.867188,421.058563 1030.791504,427.596436 1019.845093,434.344055 
	C1018.014221,435.472626 1016.608032,437.290131 1015.005615,438.789337 
	C1000.640869,445.370331 986.354126,452.128815 971.894531,458.494598 
	C943.432678,471.024841 915.113525,483.930573 886.273193,495.531952 
	C866.877991,503.333862 846.449890,508.548370 826.957581,516.136963 
	C817.356506,519.874756 808.827637,526.368042 799.817810,531.621582 
	C798.385315,532.456909 796.999573,533.987122 795.548889,534.041504 
	C792.972595,534.137878 790.363098,533.349976 787.767517,532.932007 
	C788.152405,530.650635 788.099609,528.166443 789.038147,526.141663 
	C790.100708,523.849426 792.052307,521.969360 794.014404,519.387573 
	C790.007690,519.041992 786.790894,518.764587 783.284973,518.198425 
z"/>
<path fill="#18DDED" opacity="1.000000" stroke="none" 
	d="
M1000.332397,375.141724 
	C999.548462,371.820129 999.219543,368.291870 997.834961,365.243042 
	C996.749084,362.851868 994.357239,361.053772 992.157837,359.030945 
	C994.645020,354.275513 996.907104,348.944061 1000.533142,344.808411 
	C1006.531799,337.966614 1013.409729,331.895752 1020.001953,325.416718 
	C1026.083862,334.003845 1027.998413,334.662109 1037.353149,331.104126 
	C1043.876099,328.623138 1050.386963,326.057190 1056.687866,323.074341 
	C1058.881714,322.035797 1060.430176,319.633789 1062.794800,317.462219 
	C1076.074951,318.518707 1087.058350,323.394470 1095.963989,332.975342 
	C1100.954346,338.344177 1107.417969,341.290619 1114.944946,341.387207 
	C1122.194336,356.282013 1122.121948,372.117523 1121.549438,388.191681 
	C1120.905884,406.262146 1120.997803,424.364471 1121.080566,442.451508 
	C1121.103760,447.544525 1122.488892,452.621246 1122.702148,457.728271 
	C1122.790161,459.833191 1121.435059,461.998352 1120.521484,464.487427 
	C1101.634277,476.056091 1080.699097,480.579315 1059.768311,484.863953 
	C1050.268921,486.808533 1040.504395,487.458405 1030.391846,488.562012 
	C1028.928711,486.138733 1026.823364,483.685547 1027.132324,481.587952 
	C1028.438965,472.716278 1025.820312,464.353821 1024.970703,455.357330 
	C1028.710327,457.169769 1031.058838,454.809479 1032.936523,452.589783 
	C1041.284790,442.720978 1049.687622,432.879486 1057.575928,422.646759 
	C1063.064209,415.527466 1067.449219,407.765533 1074.853394,402.006378 
	C1083.851807,395.007111 1090.863770,385.811066 1094.669067,374.968964 
	C1096.685913,369.222565 1097.891846,362.560242 1097.130127,356.610168 
	C1095.814697,346.334595 1083.906860,337.686371 1071.147949,337.107117 
	C1047.336060,336.026123 1028.033691,346.022858 1011.794922,362.734222 
	C1010.880005,363.675842 1010.689758,365.321625 1010.162170,366.639679 
	C1007.157288,369.257599 1004.152466,371.875519 1000.855835,374.815308 
	C1000.564087,375.137146 1000.332397,375.141724 1000.332397,375.141724 
z"/>
<path fill="#FE7F50" opacity="1.000000" stroke="none" 
	d="
M709.221863,263.426208 
	C733.692139,263.379242 758.162659,263.382874 782.632263,263.227142 
	C786.043396,263.205444 787.566895,264.385284 787.476074,267.769073 
	C787.445068,268.925598 787.715576,270.087494 787.729126,271.248322 
	C788.104309,303.368439 788.464172,335.488739 788.396973,368.178772 
	C781.261414,369.865265 774.582886,371.702484 767.844055,371.960022 
	C749.576355,372.658325 731.283142,372.693604 712.999634,372.962372 
	C711.894104,372.978638 710.784790,372.738220 709.522461,372.600281 
	C710.128784,366.082123 711.178040,359.811920 711.215698,353.535614 
	C711.384460,325.421448 711.301758,297.305420 711.160339,269.190796 
	C711.151733,267.470490 709.855042,265.756714 709.160461,263.885071 
	C709.163208,263.730255 709.221863,263.426208 709.221863,263.426208 
z"/>
<path fill="#0B4243" opacity="1.000000" stroke="none" 
	d="
M1115.356812,341.263885 
	C1107.417969,341.290619 1100.954346,338.344177 1095.963989,332.975342 
	C1087.058350,323.394470 1076.074951,318.518707 1062.957275,317.135498 
	C1055.537842,314.456573 1051.048706,309.050323 1047.405396,302.700439 
	C1046.625977,301.342041 1045.617554,299.704742 1044.304932,299.126587 
	C1032.040039,293.724854 1029.846558,289.998596 1031.842041,276.753113 
	C1022.592041,275.071075 1020.000305,268.497406 1019.895325,260.053864 
	C1019.865173,257.633911 1019.423401,255.169586 1018.813416,252.818207 
	C1017.942383,249.460693 1015.545898,248.651703 1012.253784,249.226883 
	C1009.215210,249.757736 1005.416931,249.829712 1005.138916,245.980911 
	C1004.965942,243.586288 1006.749329,239.793411 1008.772705,238.703461 
	C1020.860840,232.191849 1032.881836,224.837097 1047.683960,227.970779 
	C1053.348877,229.170074 1059.090454,230.082336 1064.669067,231.596771 
	C1073.442383,233.978455 1077.002808,241.298569 1074.470581,251.400726 
	C1073.435547,255.530014 1071.962036,259.549377 1070.307739,264.833374 
	C1075.284546,265.302948 1079.477417,265.559479 1083.628174,266.125305 
	C1088.843506,266.836243 1094.318970,267.015656 1099.153564,268.831787 
	C1107.240356,271.869568 1108.980957,277.933624 1105.074219,285.694641 
	C1104.637573,286.562042 1104.287354,287.472992 1103.466675,289.346191 
	C1109.854248,288.404388 1115.488770,287.552032 1121.130859,286.752350 
	C1123.429443,286.426544 1125.738037,286.080475 1128.052612,285.973145 
	C1144.769775,285.198181 1154.064697,297.030396 1149.453613,313.155396 
	C1145.232910,327.915070 1131.306396,339.485046 1115.356812,341.263885 
z"/>
<path fill="#ECF184" opacity="1.000000" stroke="none" 
	d="
M1041.542725,920.995117 
	C1049.258057,925.477966 1056.391724,930.422180 1064.027100,934.404419 
	C1079.250977,942.344543 1094.342651,941.297546 1108.983154,932.419312 
	C1110.646851,931.410522 1112.550293,930.797241 1114.728271,929.982544 
	C1119.151367,931.891357 1119.648315,935.460754 1120.007324,939.442993 
	C1120.815552,948.406799 1122.030640,957.333862 1122.760986,966.809692 
	C1116.438232,969.271667 1110.556641,971.822449 1104.411255,973.026367 
	C1066.854614,980.384216 1029.644287,989.925232 991.325195,992.685547 
	C978.701050,993.595032 965.943359,992.820129 956.028503,982.813660 
	C955.090698,981.867188 953.367676,981.698547 952.009216,981.168823 
	C954.317322,977.647278 955.863892,973.043884 959.064758,970.790527 
	C973.257874,960.799072 987.925842,951.482117 1003.078674,942.015259 
	C1006.346863,944.677612 1008.695557,947.637085 1011.683777,949.644409 
	C1013.117676,950.607727 1015.760864,949.770996 1017.856384,949.749390 
	C1017.530457,947.911865 1017.740173,945.695007 1016.764648,944.317505 
	C1014.865723,941.635864 1012.302673,939.424622 1010.014648,937.018555 
	C1011.339905,936.111023 1012.665100,935.203552 1014.447510,934.256104 
	C1017.703003,936.998718 1020.276733,940.084106 1023.412964,942.411438 
	C1024.629639,943.314392 1027.117798,942.503967 1029.026855,942.473999 
	C1028.808594,940.581543 1029.189453,938.282837 1028.241577,936.885132 
	C1026.518677,934.344421 1024.005981,932.339233 1021.822937,930.110474 
	C1023.492615,928.947083 1025.162354,927.783691 1027.265625,926.537170 
	C1030.015625,929.663635 1032.091431,933.093384 1034.746582,935.992615 
	C1036.138184,937.512390 1038.942261,939.332520 1040.413086,938.858643 
	C1043.610596,937.828613 1043.171143,934.540344 1041.770264,932.168213 
	C1039.858521,928.930908 1037.391235,926.021545 1035.162231,922.971558 
	C1037.170898,922.321533 1039.179565,921.671448 1041.542725,920.995117 
z"/>
<path fill="#ECF184" opacity="1.000000" stroke="none" 
	d="
M1415.116455,843.388672 
	C1419.406250,833.724243 1424.901978,824.802002 1427.676392,815.101379 
	C1432.052856,799.799377 1427.919312,785.688477 1417.147705,773.369263 
	C1416.418335,768.237122 1418.585083,765.926758 1423.391113,764.965027 
	C1433.496216,762.942932 1443.506226,760.444824 1453.857788,758.575806 
	C1454.493896,761.435120 1454.505371,763.961121 1455.224487,766.266418 
	C1456.999146,771.955383 1459.240234,777.498352 1461.030884,783.182922 
	C1463.273804,790.303467 1464.906006,797.630859 1467.409912,804.652161 
	C1476.729492,830.784058 1486.882202,856.696289 1491.483398,884.194397 
	C1493.985596,899.148438 1495.973389,914.528320 1482.509277,926.333008 
	C1482.276245,926.537292 1482.193481,926.912598 1482.040649,927.208069 
	C1478.535278,925.132812 1474.185913,923.783569 1471.669189,920.857910 
	C1460.194702,907.518188 1449.235107,893.735596 1438.316284,879.620239 
	C1443.254639,874.061646 1448.047729,869.065613 1452.598145,863.857544 
	C1453.342163,863.006042 1453.628296,860.747986 1453.036255,859.978516 
	C1452.209839,858.904724 1450.173096,857.877808 1448.988403,858.172791 
	C1447.243164,858.607422 1445.494263,859.967957 1444.272461,861.386780 
	C1440.720703,865.510925 1437.430420,869.860168 1434.037598,874.120972 
	C1433.088013,872.958618 1432.138550,871.796265 1431.340210,870.150757 
	C1435.730347,864.215759 1439.895508,858.704163 1444.245605,853.342468 
	C1445.920776,851.277527 1446.860596,849.367310 1444.611328,847.324768 
	C1442.038330,844.988159 1439.768066,846.654053 1438.264526,848.631165 
	C1434.174072,854.010010 1430.387817,859.620178 1426.480957,865.138672 
	C1425.358521,863.233765 1424.236084,861.328857 1423.223145,858.860718 
	C1427.724609,852.325378 1432.209106,846.416443 1436.394165,840.302612 
	C1436.929443,839.520386 1436.338013,837.114990 1435.493042,836.455994 
	C1434.444092,835.637878 1432.224121,835.191956 1431.160645,835.773987 
	C1429.359863,836.759766 1427.822144,838.505066 1426.613281,840.237610 
	C1423.678467,844.443909 1420.996338,848.826477 1418.212402,853.138062 
	C1417.175537,850.019287 1416.138672,846.900574 1415.116455,843.388672 
z"/>
<path fill="#134343" opacity="1.000000" stroke="none" 
	d="
M709.157715,264.039917 
	C709.855042,265.756714 711.151733,267.470490 711.160339,269.190796 
	C711.301758,297.305420 711.384460,325.421448 711.215698,353.535614 
	C711.178040,359.811920 710.128784,366.082123 709.522461,372.600281 
	C710.784790,372.738220 711.894104,372.978638 712.999634,372.962372 
	C731.283142,372.693604 749.576355,372.658325 767.844055,371.960022 
	C774.582886,371.702484 781.261414,369.865265 788.354492,368.684357 
	C789.274719,368.781158 789.807800,368.942139 790.611450,369.184021 
	C792.175415,372.377594 791.356384,373.970367 787.768921,374.091278 
	C785.287476,374.174957 782.725037,374.410736 780.366089,375.128571 
	C770.188049,378.225861 759.841675,378.972260 749.263855,378.321991 
	C742.956604,377.934265 736.605103,378.311768 730.275085,378.227051 
	C727.733215,378.193024 726.175659,378.710632 726.227661,381.762634 
	C726.667297,407.564667 726.983826,433.368744 727.425842,459.170715 
	C727.542725,465.992249 728.117432,472.808136 728.133667,479.627472 
	C728.137268,481.138611 726.667419,482.653229 725.875977,484.166260 
	C724.961914,482.690552 723.286072,481.235260 723.245911,479.736176 
	C722.380981,447.449738 721.700012,415.158356 720.976562,382.868103 
	C720.947083,381.550873 720.848999,380.235138 720.749329,378.250610 
	C718.688232,378.250610 716.764709,378.243439 714.841370,378.251678 
	C688.024597,378.366638 661.207947,378.513550 634.391052,378.579895 
	C627.400879,378.597198 620.401917,378.513306 613.425842,378.131439 
	C611.892273,378.047485 610.438843,376.497772 608.948547,375.623047 
	C610.489319,374.794739 612.025146,373.254547 613.571655,373.243744 
	C641.726379,373.046906 669.882385,373.033722 698.038086,372.982178 
	C699.835327,372.978882 701.632629,372.981720 704.135498,372.981720 
	C704.761963,359.370453 705.695862,346.127136 705.906921,332.872314 
	C706.238464,312.052460 706.063599,291.224762 706.167175,270.400696 
	C706.175964,268.629822 706.665710,266.861359 707.447266,264.702209 
	C708.360901,264.221741 708.759277,264.130829 709.157715,264.039917 
z"/>
<path fill="#FF8152" opacity="1.000000" stroke="none" 
	d="
M951.769714,981.426025 
	C953.367676,981.698547 955.090698,981.867188 956.028503,982.813660 
	C965.943359,992.820129 978.701050,993.595032 991.325195,992.685547 
	C1029.644287,989.925232 1066.854614,980.384216 1104.411255,973.026367 
	C1110.556641,971.822449 1116.438232,969.271667 1122.798096,967.213257 
	C1129.404785,972.052124 1129.421021,976.325806 1122.122559,979.162842 
	C1113.501099,982.514343 1104.426270,984.962646 1095.347534,986.826050 
	C1065.241333,993.005310 1035.153198,999.412842 1004.830872,1004.332153 
	C992.374939,1006.352905 979.315918,1005.272461 966.580994,1004.624573 
	C962.085205,1004.395935 957.310852,1001.893921 953.422363,999.294739 
	C947.612549,995.411194 947.117004,987.241760 951.769714,981.426025 
z"/>
<path fill="#FF8152" opacity="1.000000" stroke="none" 
	d="
M1482.201660,927.509949 
	C1482.193481,926.912598 1482.276245,926.537292 1482.509277,926.333008 
	C1495.973389,914.528320 1493.985596,899.148438 1491.483398,884.194397 
	C1486.882202,856.696289 1476.729492,830.784058 1467.409912,804.652161 
	C1464.906006,797.630859 1463.273804,790.303467 1461.030884,783.182922 
	C1459.240234,777.498352 1456.999146,771.955383 1455.224487,766.266418 
	C1454.505371,763.961121 1454.493896,761.435120 1454.243408,758.602661 
	C1458.410522,755.335266 1461.261963,755.552185 1463.934692,759.637390 
	C1466.009644,762.808655 1467.693115,766.322327 1469.023682,769.880798 
	C1482.487183,805.888367 1494.265503,842.421509 1502.436890,880.029175 
	C1505.344482,893.410889 1505.240234,906.895813 1500.716919,919.896912 
	C1499.268677,924.059082 1496.216675,928.097717 1492.892578,931.066833 
	C1488.361328,935.114502 1484.545532,933.564758 1482.201660,927.509949 
z"/>
<path fill="#0B4748" opacity="1.000000" stroke="none" 
	d="
M1010.513062,366.751465 
	C1010.689758,365.321625 1010.880005,363.675842 1011.794922,362.734222 
	C1028.033691,346.022858 1047.336060,336.026123 1071.147949,337.107117 
	C1083.906860,337.686371 1095.814697,346.334595 1097.130127,356.610168 
	C1097.891846,362.560242 1096.685913,369.222565 1094.669067,374.968964 
	C1090.863770,385.811066 1083.851807,395.007111 1074.853394,402.006378 
	C1067.449219,407.765533 1063.064209,415.527466 1057.575928,422.646759 
	C1049.687622,432.879486 1041.284790,442.720978 1032.936523,452.589783 
	C1031.058838,454.809479 1028.710327,457.169769 1024.834961,454.940002 
	C1021.426086,449.766876 1018.422607,444.568848 1015.212402,439.080078 
	C1016.608032,437.290131 1018.014221,435.472626 1019.845093,434.344055 
	C1030.791504,427.596436 1041.867188,421.058563 1052.815552,414.314148 
	C1054.600220,413.214600 1055.967651,411.437561 1058.097778,409.647858 
	C1062.675659,406.077850 1067.133545,403.248566 1070.593018,399.498260 
	C1076.748779,392.825104 1083.092651,386.083344 1087.819336,378.421295 
	C1090.864502,373.485077 1092.523438,366.825043 1092.393799,360.991150 
	C1092.167603,350.820038 1082.219482,342.647064 1070.275146,341.771454 
	C1050.724731,340.338318 1035.251465,350.241516 1020.030396,360.605835 
	C1016.974854,362.691620 1013.919373,364.777435 1010.513062,366.751465 
z"/>
<path fill="#154644" opacity="1.000000" stroke="none" 
	d="
M1028.453369,630.939331 
	C1034.398804,630.045959 1040.703979,628.901855 1047.058105,628.454590 
	C1060.759033,627.490356 1074.486816,626.913757 1088.198730,626.097473 
	C1090.146484,625.981506 1092.067261,625.412720 1094.408203,625.084961 
	C1102.982788,642.051514 1111.171631,658.976196 1119.292725,675.933289 
	C1120.504517,678.463562 1120.969849,680.929626 1116.401245,680.837769 
	C1114.660400,677.716980 1113.316040,674.666931 1111.828979,671.337891 
	C1107.595947,662.193726 1103.505493,653.328430 1099.683228,645.044128 
	C1094.236206,643.919006 1088.842285,643.583191 1084.081909,641.670532 
	C1071.541504,636.631958 1058.441162,635.153320 1045.191650,633.919617 
	C1039.696655,633.407898 1034.285034,632.003235 1028.453369,630.939331 
z"/>
<path fill="#154644" opacity="1.000000" stroke="none" 
	d="
M1179.117432,601.124878 
	C1182.647217,599.071289 1186.177002,597.017700 1189.976807,594.849487 
	C1191.748047,599.719360 1193.249146,604.703918 1194.607178,610.045715 
	C1182.949219,611.841553 1171.409058,613.103455 1159.926270,614.763611 
	C1145.809204,616.804626 1131.743530,619.201172 1117.646240,621.382812 
	C1115.533325,621.709900 1113.368530,621.703552 1110.811523,621.834595 
	C1129.363647,616.558228 1148.345825,611.348145 1167.288940,605.998962 
	C1171.248169,604.880859 1175.062500,603.249268 1179.003418,601.459229 
	C1179.063110,601.064148 1179.117432,601.124878 1179.117432,601.124878 
z"/>
<path fill="#154644" opacity="1.000000" stroke="none" 
	d="
M738.593994,542.701050 
	C736.737427,539.034546 734.730713,535.485046 733.003235,531.804504 
	C732.569702,530.880737 732.775085,529.449280 733.129883,528.401184 
	C734.303284,524.935547 741.536682,521.847534 747.509521,522.152222 
	C752.161560,522.389587 755.558167,524.350342 756.305115,529.291382 
	C756.748840,532.227234 756.980164,535.227478 756.912781,538.189758 
	C756.890808,539.154419 755.621887,540.090698 754.923279,541.039917 
	C753.964844,540.129150 752.462280,539.368958 752.159851,538.276550 
	C751.504211,535.907959 751.693787,533.313904 751.116821,530.913147 
	C750.182556,527.026123 746.433167,526.216919 740.692566,528.274353 
	C736.986633,529.602600 737.996094,531.867737 738.781250,534.659241 
	C739.445251,537.020203 743.569580,539.591003 738.742004,542.419800 
	C738.444092,542.639771 738.547241,542.769470 738.593994,542.701050 
z"/>
<path fill="#0B4243" opacity="1.000000" stroke="none" 
	d="
M989.944153,285.243164 
	C994.111389,285.648438 998.072693,285.642426 1002.002075,285.993683 
	C1006.304749,286.378296 1007.939026,289.272308 1005.095032,292.306244 
	C1001.319397,296.333862 996.687500,299.583466 992.245850,302.931580 
	C991.667358,303.367645 990.033386,302.403564 988.888306,302.087982 
	C989.358337,300.831360 989.474915,299.163818 990.366333,298.397217 
	C992.784363,296.317871 995.531006,294.620697 998.059021,292.834473 
	C994.770508,291.929962 991.557373,291.249207 988.521790,290.099854 
	C987.475037,289.703522 986.870300,288.139862 986.063660,287.109436 
	C987.283813,286.402740 988.504028,285.696045 989.944153,285.243164 
z"/>
<path fill="#FF8152" opacity="1.000000" stroke="none" 
	d="
M1426.405151,865.490356 
	C1430.387817,859.620178 1434.174072,854.010010 1438.264526,848.631165 
	C1439.768066,846.654053 1442.038330,844.988159 1444.611328,847.324768 
	C1446.860596,849.367310 1445.920776,851.277527 1444.245605,853.342468 
	C1439.895508,858.704163 1435.730347,864.215759 1431.199951,869.854370 
	C1428.381836,869.732300 1426.092285,869.164978 1426.405151,865.490356 
z"/>
<path fill="#FF8152" opacity="1.000000" stroke="none" 
	d="
M1418.177979,853.493347 
	C1420.996338,848.826477 1423.678467,844.443909 1426.613281,840.237610 
	C1427.822144,838.505066 1429.359863,836.759766 1431.160645,835.773987 
	C1432.224121,835.191956 1434.444092,835.637878 1435.493042,836.455994 
	C1436.338013,837.114990 1436.929443,839.520386 1436.394165,840.302612 
	C1432.209106,846.416443 1427.724609,852.325378 1423.086670,858.519592 
	C1421.275024,857.110596 1419.709351,855.479614 1418.177979,853.493347 
z"/>
<path fill="#FF8152" opacity="1.000000" stroke="none" 
	d="
M1434.033203,874.495605 
	C1437.430420,869.860168 1440.720703,865.510925 1444.272461,861.386780 
	C1445.494263,859.967957 1447.243164,858.607422 1448.988403,858.172791 
	C1450.173096,857.877808 1452.209839,858.904724 1453.036255,859.978516 
	C1453.628296,860.747986 1453.342163,863.006042 1452.598145,863.857544 
	C1448.047729,869.065613 1443.254639,874.061646 1438.226318,879.310547 
	C1436.616455,877.951904 1435.322510,876.411011 1434.033203,874.495605 
z"/>
<path fill="#FF8152" opacity="1.000000" stroke="none" 
	d="
M1034.916504,922.718811 
	C1037.391235,926.021545 1039.858521,928.930908 1041.770264,932.168213 
	C1043.171143,934.540344 1043.610596,937.828613 1040.413086,938.858643 
	C1038.942261,939.332520 1036.138184,937.512390 1034.746582,935.992615 
	C1032.091431,933.093384 1030.015625,929.663635 1027.458496,926.257080 
	C1026.669922,925.064087 1025.638062,924.044739 1025.685059,923.077515 
	C1025.760864,921.512268 1026.108765,919.275818 1027.151123,918.630920 
	C1028.227417,917.965088 1030.452759,918.494446 1031.834229,919.184265 
	C1033.028320,919.780518 1033.743896,921.335083 1034.916504,922.718811 
z"/>
<path fill="#FF8152" opacity="1.000000" stroke="none" 
	d="
M1009.706970,936.861084 
	C1012.302673,939.424622 1014.865723,941.635864 1016.764648,944.317505 
	C1017.740173,945.695007 1017.530457,947.911865 1017.856384,949.749390 
	C1015.760864,949.770996 1013.117676,950.607727 1011.683777,949.644409 
	C1008.695557,947.637085 1006.346863,944.677612 1003.441650,941.937073 
	C1002.731506,941.062683 1002.001831,940.379089 1001.959167,939.654907 
	C1001.845764,937.731384 1002.028870,935.790283 1002.094055,933.856201 
	C1003.934204,934.244446 1005.809448,934.520203 1007.597107,935.076904 
	C1008.298645,935.295349 1008.804382,936.142700 1009.706970,936.861084 
z"/>
<path fill="#FF8152" opacity="1.000000" stroke="none" 
	d="
M1021.529663,929.940552 
	C1024.005981,932.339233 1026.518677,934.344421 1028.241577,936.885132 
	C1029.189453,938.282837 1028.808594,940.581543 1029.026855,942.473999 
	C1027.117798,942.503967 1024.629639,943.314392 1023.412964,942.411438 
	C1020.276733,940.084106 1017.703003,936.998718 1014.681885,934.000061 
	C1014.289734,931.526611 1014.011719,929.263489 1014.131775,927.021667 
	C1014.142822,926.814941 1016.878723,926.276855 1018.009338,926.733887 
	C1019.285706,927.249756 1020.177429,928.716980 1021.529663,929.940552 
z"/>
<path fill="#FEBC80" opacity="1.000000" stroke="none" 
	d="
M709.160461,263.885071 
	C708.759277,264.130829 708.360901,264.221741 707.667419,264.367615 
	C707.270935,264.259094 707.169495,264.095642 706.937561,263.676758 
	C707.346924,263.343536 707.886780,263.265747 708.824219,263.307098 
	C709.221863,263.426208 709.163208,263.730255 709.160461,263.885071 
z"/>
<path fill="#17DEEE" opacity="1.000000" stroke="none" 
	d="
M533.074829,480.509766 
	C521.128418,487.069916 508.195312,489.148346 494.996033,489.968292 
	C487.364685,490.442322 479.691132,490.342102 472.079346,490.997162 
	C464.529236,491.646851 462.666809,494.111084 463.038391,501.699371 
	C463.143707,503.849670 463.351776,506.053986 463.937653,508.112610 
	C470.070984,529.662292 477.631805,550.578674 492.247986,568.097107 
	C494.887939,571.261230 498.077057,574.082458 501.399017,576.539673 
	C509.803558,582.756348 518.289368,582.715149 526.799316,576.737732 
	C554.513306,557.271240 585.536804,547.160034 618.941101,542.871948 
	C644.495789,539.591553 670.022583,538.536072 696.121216,540.084106 
	C706.497864,575.066345 716.424622,609.938782 726.414734,644.793091 
	C743.003906,702.670837 759.594666,760.548340 776.342163,818.380310 
	C777.356567,821.883423 776.602600,823.336914 773.522827,824.911072 
	C697.357239,863.840942 621.237183,902.859863 545.104004,941.853149 
	C543.932739,942.453003 542.697083,942.927063 540.813660,943.759338 
	C468.511749,710.929382 396.276062,478.312592 323.884155,245.192841 
	C337.141754,244.182266 350.010162,243.181534 362.881775,242.223709 
	C412.373352,238.540894 461.871094,234.939697 511.356201,231.172073 
	C540.738037,228.935043 570.110107,226.552078 599.461975,223.957428 
	C604.204102,223.538254 606.080872,224.748001 607.228638,229.446671 
	C609.910645,240.425537 613.297485,251.232224 616.447144,262.509644 
	C612.491333,263.450867 608.487122,263.991058 603.824341,264.620087 
	C602.387268,299.141266 600.937012,333.978210 599.471008,369.193481 
	C579.532776,369.193481 560.094666,369.193481 540.194702,369.193481 
	C537.801758,406.401672 535.432678,443.237915 533.074829,480.509766 
z"/>
<path fill="#134945" opacity="1.000000" stroke="none" 
	d="
M377.469971,522.632446 
	C360.362427,467.822479 343.421021,413.378510 326.477112,358.935333 
	C313.882263,318.466248 300.666199,278.175751 288.964111,237.450226 
	C283.603882,218.795578 284.944427,199.444397 292.167664,181.075729 
	C295.282410,173.154938 300.886353,167.185379 309.752533,165.635300 
	C311.561157,165.319092 313.678802,166.770569 315.653992,167.407181 
	C314.208466,168.620483 312.925201,170.554535 311.289429,170.922791 
	C304.056549,172.551147 299.718140,177.200287 297.022644,183.674835 
	C292.170868,195.328690 292.055481,207.635895 292.007050,219.998978 
	C291.961029,231.754440 296.053741,242.495544 299.449738,253.419708 
	C369.373657,478.349945 439.258331,703.292419 509.375031,928.162537 
	C515.596863,948.116333 522.389465,968.008545 530.659485,987.177551 
	C540.704163,1010.460266 558.670288,1025.625610 583.781677,1031.558838 
	C584.429565,1031.711914 585.287292,1031.684814 585.675537,1032.094238 
	C586.782776,1033.261475 587.697876,1034.611084 588.688538,1035.888916 
	C587.183167,1036.487183 585.500183,1037.862793 584.199280,1037.565674 
	C567.802368,1033.820801 553.171997,1026.793091 541.605103,1014.149963 
	C529.317627,1000.719360 521.484070,984.712036 516.063354,967.691467 
	C500.025238,917.333496 484.567688,866.790649 468.870911,816.323914 
	C438.805664,719.660828 408.731995,623.000427 378.662384,526.338745 
	C378.316406,525.226501 377.977386,524.112122 377.469971,522.632446 
z"/>
<path fill="#1A4E47" opacity="1.000000" stroke="none" 
	d="
M696.734253,960.616943 
	C672.134338,960.004639 656.153625,939.384460 661.784851,915.918396 
	C662.787598,911.739868 664.118286,907.578125 665.835510,903.643372 
	C674.451111,883.902039 693.655151,878.980957 710.894592,891.957703 
	C730.153442,906.454224 730.737915,939.927612 711.593506,954.534607 
	C707.578064,957.598328 702.015930,958.634766 696.734253,960.616943 
M671.822510,902.437134 
	C670.327881,905.401428 668.549438,908.258728 667.384888,911.347534 
	C660.065552,930.761597 667.616821,948.302002 686.182312,955.342041 
	C693.919006,958.275818 701.180725,957.398499 707.980530,952.683289 
	C725.520996,940.520081 727.361938,913.644836 711.916321,897.795593 
	C700.579895,886.162964 680.450439,885.703979 671.822510,902.437134 
z"/>
<path fill="#FDE5CF" opacity="1.000000" stroke="none" 
	d="
M825.994995,455.519226 
	C834.071838,456.089874 842.072510,457.295746 850.113159,458.105011 
	C858.669312,458.966187 867.264099,459.440674 875.839905,460.111450 
	C877.380310,460.231934 878.910278,460.485596 880.445068,460.677765 
	C880.535645,461.097260 880.626221,461.516724 880.716797,461.936218 
	C875.238708,465.224823 869.645203,468.338257 864.314514,471.850525 
	C858.794189,475.487732 853.658691,479.716980 848.077576,483.249084 
	C846.257568,484.400940 843.344543,484.980316 841.317505,484.421326 
	C836.392578,483.063324 831.694153,480.883820 826.569092,478.933716 
	C826.134583,471.214783 826.035522,463.597382 825.994995,455.519226 
z"/>
<path fill="#154644" opacity="1.000000" stroke="none" 
	d="
M618.500183,427.487305 
	C612.957275,435.419403 599.122803,432.227997 593.672119,426.731812 
	C593.007385,426.061584 593.280518,424.461273 593.119141,423.291962 
	C594.150940,423.316986 595.320679,423.034241 596.189209,423.423523 
	C599.040222,424.701263 601.646240,426.682892 604.594666,427.551575 
	C610.076233,429.166565 615.472290,426.133820 616.976868,421.156525 
	C618.393677,416.469696 615.754333,413.017395 609.496887,410.824493 
	C608.069824,410.324341 606.987244,408.841064 605.746094,407.810303 
	C607.405151,407.369934 609.220520,406.254822 610.698242,406.597137 
	C621.356140,409.066071 625.965149,419.831329 618.500183,427.487305 
z"/>
<path fill="#EDEB81" opacity="1.000000" stroke="none" 
	d="
M1035.735107,575.611694 
	C1034.447998,588.290527 1033.250732,600.509155 1031.964966,612.718506 
	C1031.617676,616.015259 1031.286865,619.366333 1030.372192,622.525574 
	C1029.991455,623.840454 1028.103027,624.718628 1026.900146,625.795410 
	C1026.291016,624.407837 1025.067017,622.967651 1025.180298,621.641785 
	C1025.645996,616.193604 1026.741089,610.799011 1027.199707,605.350586 
	C1028.564087,589.142883 1029.664673,572.913025 1031.007568,556.703430 
	C1032.117065,543.315186 1033.573608,529.954407 1034.570801,516.558777 
	C1034.962891,511.294281 1034.428223,505.966003 1034.537964,500.671417 
	C1034.563110,499.459442 1035.506470,498.266510 1036.027100,497.064758 
	C1037.026978,497.929657 1038.878784,498.780365 1038.893433,499.661652 
	C1039.022583,507.415771 1039.011108,515.183655 1038.665405,522.930725 
	C1038.384521,529.220520 1037.383545,535.476746 1037.062256,541.766296 
	C1036.494263,552.886169 1036.200317,564.020081 1035.735107,575.611694 
z"/>
<path fill="#EDEB81" opacity="1.000000" stroke="none" 
	d="
M1179.093506,601.100464 
	C1173.602417,601.503418 1174.030518,596.941528 1173.079590,593.677612 
	C1170.205811,583.813660 1168.456421,573.488953 1164.469116,564.108887 
	C1154.647095,541.002319 1143.855713,518.306580 1133.376221,495.481476 
	C1130.113403,488.374878 1126.528198,481.416199 1123.280396,474.303131 
	C1122.787842,473.224426 1123.332520,471.672119 1123.397339,470.338867 
	C1124.664429,471.021454 1126.574097,471.383881 1127.098511,472.436462 
	C1131.995239,482.266113 1136.550415,492.265442 1141.408081,502.115143 
	C1147.732544,514.938904 1154.671265,527.476990 1160.563599,540.492065 
	C1167.819946,556.519775 1175.306885,572.558350 1177.340454,590.396423 
	C1177.723755,593.759033 1178.573853,597.068298 1179.163086,600.763550 
	C1179.117432,601.124878 1179.063110,601.064148 1179.093506,601.100464 
z"/>
<path fill="#EDEB81" opacity="1.000000" stroke="none" 
	d="
M1087.064575,508.811157 
	C1086.014404,501.985962 1084.923706,495.616333 1083.999756,489.222595 
	C1083.817139,487.958954 1084.275879,486.602600 1084.438721,485.289001 
	C1085.668335,486.071198 1087.742065,486.649231 1087.988770,487.669250 
	C1089.427612,493.615967 1090.395752,499.674835 1091.600830,505.680206 
	C1095.163330,523.432190 1098.975830,541.137268 1102.281982,558.936523 
	C1105.129028,574.263611 1107.420654,589.693909 1109.934082,605.082520 
	C1110.067017,605.896057 1110.250244,606.872375 1109.933716,607.550598 
	C1109.379517,608.738098 1108.455322,609.752808 1107.686035,610.839905 
	C1106.822998,609.800110 1105.271118,608.807190 1105.196777,607.713745 
	C1102.915894,574.197571 1092.175537,542.245850 1087.064575,508.811157 
z"/>
<path fill="#EDEB81" opacity="1.000000" stroke="none" 
	d="
M1133.411133,526.639282 
	C1128.983154,516.553345 1124.897095,506.727234 1120.414917,497.085266 
	C1117.690063,491.223755 1114.262207,485.692169 1111.367676,479.903595 
	C1110.780396,478.729370 1111.168823,477.067352 1111.107422,475.630188 
	C1112.339844,476.186218 1113.832886,476.475220 1114.741821,477.362488 
	C1116.021240,478.611359 1117.135132,480.185669 1117.858643,481.824432 
	C1128.662598,506.291382 1139.806396,530.621033 1149.967285,555.353943 
	C1155.320068,568.383484 1158.996338,582.108704 1163.222290,595.584717 
	C1163.700317,597.109192 1162.830566,599.056213 1162.585693,600.807251 
	C1161.223877,599.492126 1159.146729,598.415527 1158.615601,596.823303 
	C1154.988525,585.951965 1152.052612,574.840759 1148.183594,564.061890 
	C1143.697510,551.563843 1138.483765,539.327026 1133.411133,526.639282 
z"/>
<path fill="#EDEB81" opacity="1.000000" stroke="none" 
	d="
M1086.989746,602.078735 
	C1083.526367,578.138916 1080.125854,554.646240 1076.601685,531.172241 
	C1074.680542,518.376099 1072.497803,505.619141 1070.605957,492.818970 
	C1070.446655,491.740204 1071.604736,490.466736 1072.150757,489.283691 
	C1073.043823,490.296692 1074.510376,491.195129 1074.739258,492.340759 
	C1076.591064,501.614075 1078.360840,510.909515 1079.869263,520.244507 
	C1082.808594,538.434753 1085.698242,556.635315 1088.339600,574.870605 
	C1089.813965,585.050964 1090.696411,595.316040 1091.956421,605.529236 
	C1092.341187,608.648499 1093.336548,611.704956 1093.559570,614.825378 
	C1093.649414,616.083069 1092.417236,617.435242 1091.786621,618.744385 
	C1090.873169,617.766418 1089.386108,616.910461 1089.147461,615.788940 
	C1088.217285,611.416199 1087.682617,606.959229 1086.989746,602.078735 
z"/>
<path fill="#EDEB81" opacity="1.000000" stroke="none" 
	d="
M1045.055786,575.014404 
	C1045.342773,558.576050 1045.786133,542.626282 1045.840698,526.675293 
	C1045.872559,517.380554 1045.188477,508.084900 1045.068359,498.786560 
	C1045.049683,497.341583 1046.328003,495.879852 1047.006592,494.425903 
	C1047.687500,495.906158 1048.943115,497.378265 1048.964355,498.867889 
	C1049.360229,526.796082 1050.038086,554.731628 1049.694214,582.653809 
	C1049.541626,595.036560 1047.345825,607.403381 1045.831299,619.747192 
	C1045.659790,621.144043 1043.885620,622.344238 1042.854614,623.635559 
	C1042.527344,622.154419 1041.833252,620.648926 1041.929565,619.195862 
	C1042.894775,604.626465 1043.990112,590.065735 1045.055786,575.014404 
z"/>
<path fill="#18DDED" opacity="1.000000" stroke="none" 
	d="
M1020.396973,360.684509 
	C1035.251465,350.241516 1050.724731,340.338318 1070.275146,341.771454 
	C1082.219482,342.647064 1092.167603,350.820038 1092.393799,360.991150 
	C1092.523438,366.825043 1090.864502,373.485077 1087.819336,378.421295 
	C1083.092651,386.083344 1076.748779,392.825104 1070.593018,399.498260 
	C1067.133545,403.248566 1062.675659,406.077850 1058.318848,409.432892 
	C1059.384155,403.779572 1057.369629,399.187805 1053.156738,395.315399 
	C1050.844849,393.190338 1048.747925,390.799927 1046.279907,388.882080 
	C1039.379150,383.519409 1034.124268,376.924835 1029.662720,369.407562 
	C1027.625122,365.974792 1023.785706,363.611542 1020.396973,360.684509 
z"/>
<path fill="#154644" opacity="1.000000" stroke="none" 
	d="
M1000.097595,375.396393 
	C1000.332397,375.141724 1000.564087,375.137146 1000.677368,375.113464 
	C1004.886902,378.095337 1004.842346,378.973389 1001.013855,381.909576 
	C996.533936,385.345367 991.779785,388.562897 987.872620,392.582703 
	C968.170044,412.853851 944.541809,427.686218 920.481323,441.966553 
	C911.333862,447.395752 902.257263,452.946777 893.036011,458.246674 
	C891.629517,459.055054 889.611694,458.799805 887.876587,459.036499 
	C888.624084,457.349152 888.896973,454.906403 890.192993,454.092041 
	C902.297424,446.486328 914.648560,439.274414 926.790527,431.726898 
	C946.749512,419.320282 965.600647,405.461914 982.705688,389.246155 
	C987.980286,384.245667 994.119507,380.157135 1000.097595,375.396393 
z"/>
<path fill="#EBF284" opacity="1.000000" stroke="none" 
	d="
M671.981689,902.108398 
	C680.450439,885.703979 700.579895,886.162964 711.916321,897.795593 
	C727.361938,913.644836 725.520996,940.520081 707.980530,952.683289 
	C701.180725,957.398499 693.919006,958.275818 686.182312,955.342041 
	C667.616821,948.302002 660.065552,930.761597 667.384888,911.347534 
	C668.549438,908.258728 670.327881,905.401428 671.981689,902.108398 
z"/>
</svg>